<svg width="32" height="32" viewBox="0 0 32 32" fill="none" xmlns="http://www.w3.org/2000/svg">
  <!-- Ball outline -->
  <circle cx="16" cy="16" r="15" fill="white" stroke="black" stroke-width="1.5"/>

  <!-- Center pentagon -->
  <polygon points="16,6 20,10 18.5,15 13.5,15 12,10" fill="black"/>

  <!-- Top left pentagon -->
  <polygon points="6,12 12,10 13.5,15 9,18 4,15" fill="black"/>

  <!-- Top right pentagon -->
  <polygon points="26,12 28,15 23,18 18.5,15 20,10" fill="black"/>

  <!-- Bottom left pentagon -->
  <polygon points="9,18 13.5,15 14,21 10,25 5,21" fill="black"/>

  <!-- Bottom right pentagon -->
  <polygon points="23,18 27,21 22,25 18,21 18.5,15" fill="black"/>

  <!-- Bottom center pentagon -->
  <polygon points="14,21 18,21 20,27 16,30 12,27" fill="black"/>
</svg>