<?xml version="1.0" encoding="UTF-8"?>
<svg width="32" height="32" viewBox="0 0 32 32" fill="none" xmlns="http://www.w3.org/2000/svg">
  <defs>
    <linearGradient id="bgGradient" x1="0%" y1="0%" x2="100%" y2="100%">
      <stop offset="0%" style="stop-color:#3B82F6;stop-opacity:1" />
      <stop offset="100%" style="stop-color:#1D4ED8;stop-opacity:1" />
    </linearGradient>
    <linearGradient id="ballGradient" x1="0%" y1="0%" x2="100%" y2="100%">
      <stop offset="0%" style="stop-color:#FFFFFF;stop-opacity:1" />
      <stop offset="50%" style="stop-color:#F1F5F9;stop-opacity:1" />
      <stop offset="100%" style="stop-color:#E2E8F0;stop-opacity:1" />
    </linearGradient>
  </defs>

  <!-- Background circle -->
  <circle cx="16" cy="16" r="16" fill="url(#bgGradient)"/>

  <!-- Football/Soccer Ball -->
  <g transform="translate(4, 4)">
    <!-- Ball circle -->
    <circle cx="12" cy="12" r="10" fill="url(#ballGradient)" stroke="#1E293B" stroke-width="0.8"/>

    <!-- Pentagon pattern on ball -->
    <polygon points="12,4 16,8 14,13 10,13 8,8" fill="#1E293B" opacity="0.8"/>
    <polygon points="5,10 8,8 10,13 7,16 4,13" fill="#1E293B" opacity="0.6"/>
    <polygon points="19,10 20,13 17,16 14,13 16,8" fill="#1E293B" opacity="0.6"/>
    <polygon points="12,20 10,13 14,13 16,17 12,20" fill="#1E293B" opacity="0.7"/>
    <polygon points="8,17 7,16 10,13 12,20 8,17" fill="#1E293B" opacity="0.5"/>
    <polygon points="16,17 14,13 17,16 16,17" fill="#1E293B" opacity="0.5"/>

    <!-- Ball highlight -->
    <ellipse cx="9" cy="9" rx="2.5" ry="3.5" fill="white" opacity="0.4" transform="rotate(-20 9 9)"/>
  </g>
</svg>
